<?xml version="1.0" ?><svg height="60px" version="1.1" viewBox="0 0 60 60" width="60px" xmlns="http://www.w3.org/2000/svg" xmlns:sketch="http://www.bohemiancoding.com/sketch/ns" xmlns:xlink="http://www.w3.org/1999/xlink"><title/><defs/><g fill="none" fill-rule="evenodd" id="flat" stroke="none" stroke-width="1"><g id="play_store"><path d="M30,60 C46.5685433,60 60,46.5685433 60,30 C60,13.4314567 46.5685433,0 30,0 C13.4314567,0 0,13.4314567 0,30 C0,46.5685433 13.4314567,60 30,60 Z" fill="#262626" id="Play-Store"/><g id="Play-Store" transform="translate(17.461538, 13.000000)"><path d="M18.3076923,10.6203459 L2.52728106,2 C1.70485715,2 1.03846154,2.66475248 1.03846154,3.48514851 L1.03846154,30.5148515 C1.03846154,31.3352475 1.70485715,32 2.52728106,32 C2.52728106,32 11.1806001,27.244086 18.3076923,23.3439795 L18.3076923,10.6203459 Z" fill="#FFFFFF" id="Mask"/><path d="M21.5106871,12.370042 L27.5394489,15.6633663 C30.2199196,17.1072277 27.5394489,18.3366337 27.5394489,18.3366337 C27.5394489,18.2531683 2.52728106,32 2.52728106,32 C2.4790684,32 2.43139195,31.9977155 2.38435454,31.9932491 L21.5106871,12.370042 Z" fill="#CCCCCC" id="Mask"/><path d="M2.52823098,2.00051891 L27.5394489,15.6633663 C30.2199196,17.1072277 27.5394489,18.3366337 27.5394489,18.3366337 C27.5394489,18.3101555 25.0222692,19.6755337 21.5849861,21.552341 L2.52823098,2.00051891 Z" fill="#CCCCCC" id="Mask"/><path d="M21.5430894,12.3877424 L27.5394489,15.6633663 C30.2199196,17.1072277 27.5394489,18.3366337 27.5394489,18.3366337 C27.5394489,18.3101555 25.0222692,19.6755337 21.5849861,21.552341 L17.0977657,16.9485492 L21.5430894,12.3877424 Z" fill="#FFFFFF" id="Mask"/></g></g></g></svg>